<svg xmlns="http://www.w3.org/2000/svg" xmlns:xlink="http://www.w3.org/1999/xlink" viewBox="0 0 86.083 118.083" fill="#fff" fill-rule="evenodd" stroke="#000" stroke-linecap="round" stroke-linejoin="round"><style><![CDATA[.B{fill-rule:nonzero}.C{stroke-width:4.167}]]></style><use xlink:href="#A" x="1.042" y="1.042"/><symbol id="A" overflow="visible"><g stroke="none"><g fill="#92d3f5" class="B"><path d="M59.575 85.78l1.66 5.167-2.363 10.406-10.792 11.823a49.93 49.93 0 0 0 31.121-8.567c9.14-6.222 4.167-27.083-20.833-27.083-6.65 4.433-12.346 7.496-18.75 7.483h.26c-6.404.013-12.1-3.05-18.75-7.483-25 0-20.833 27.083-20.833 27.083 20.787 12.542 29.933 7.725 58.583-3.254l1.285-7.333-50.142 2.813 11.063-1.892"/><path d="M79.167 104.608s4.167-27.083-20.833-27.083c-6.65 4.433-12.346 7.496-18.75 7.483h.26c-6.404.013-12.1-3.05-18.75-7.483-25 0-20.833 27.083-20.833 27.083"/></g><g fill="#61b2e4"><path d="M58.92 77.525a37.53 37.53 0 0 1-18.619 7.477c27.215.854 27.215 11.27 28.802 19.604h10.652s4.167-27.083-20.833-27.083z" class="B"/><path d="M79.754 104.608s-24.492 18.804-43.204 6.173l22.32-9.427 2.363-10.406s18.702-5.133 18.52 13.66z" class="B"/></g><path d="M16.12 43.15c0-16.358 10.536-29.527 23.623-29.527s23.623 13.17 23.623 29.527S52.83 72.677 39.744 72.677 16.12 59.508 16.12 43.15z" fill="#92d3f5" class="B"/><path d="M67.186 11.013C39.748 19.6 16.144 39.175 16.144 39.175s-8.25-11.125-4.66-22.348c0 0 4.66-16.827 27.158-16.827 16.05 0 24.156 6.604 28.563 11 12.804 18.177-4.448 28.342-4.448 28.342-6.994-5.45-13.707-11.25-20.115-17.377" class="B"/><use xlink:href="#C" fill="#3f3f3f" class="B"/><path d="M67.185 11.012C80 29.19 62.738 39.354 62.738 39.354c-6.994-5.45-13.707-11.25-20.115-17.377" fill="#d0cfce" class="B"/><path d="M39.746 34.12a4.17 4.17 0 0 1-4.167-4.167V21.62a4.17 4.17 0 0 1 4.167-4.167 4.17 4.17 0 0 1 4.167 4.167v8.333a4.17 4.17 0 0 1-4.167 4.167zm19.125 67.233l-9.192 3.813V94.24h10.48l-1.285 7.113z" fill="#fcea2b" class="B"/></g><g fill="none" class="C"><path d="M48.08 113.175a49.93 49.93 0 0 0 31.121-8.567c9.14-6.222 4.167-27.083-20.833-27.083-6.65 4.433-12.346 7.496-18.75 7.483h.26c-6.404.013-12.1-3.05-18.75-7.483-25 0-20.833 27.083-20.833 27.083 20.788 12.542 29.933 7.725 58.583-3.254l1.285-7.333-50.142 2.813"/><path d="M59.575 85.78l1.66 5.167-2.362 10.406M18.3 55.48a35.42 35.42 0 0 1-2.167-12.333 38.98 38.98 0 0 1 .229-4.167m46.792.104a37.33 37.33 0 0 1 .229 4.063c.014 4.245-.734 8.457-2.208 12.438"/></g><path d="M52.246 40.315a4.17 4.17 0 0 1-4.167 4.167 4.17 4.17 0 0 1-4.167-4.167 4.17 4.17 0 0 1 4.167-4.167 4.17 4.17 0 0 1 4.167 4.167m-16.667 0a4.17 4.17 0 0 1-4.167 4.167 4.17 4.17 0 0 1-4.167-4.167 4.17 4.17 0 0 1 4.167-4.167 4.17 4.17 0 0 1 4.167 4.167m4.167 20.838c-2.5-.024-4.96-.637-7.18-1.788-1.03-.515-1.446-1.767-.93-2.796s1.767-1.446 2.796-.93a11.2 11.2 0 0 0 10.636 0c1.03-.515 2.28-.098 2.796.93s.098 2.28-.93 2.796c-2.22 1.15-4.68 1.763-7.18 1.788z" stroke="none" fill="#000" class="B"/><g fill="none" class="C"><use xlink:href="#C"/><path d="M35.583 25.7l-7.354 4.667-11.875 8.625-.208.208s-8.25-11.125-4.667-22.333c0 0 4.667-16.833 27.167-16.833 16.042 0 24.167 6.604 28.542 11.042 11.625 16.458-1.5 26.354-4.042 28.063-.27.208-.417.27-.417.27s-9.167-7.042-18.812-16.146"/><path d="M43.854 20.98c7.456-4.027 15.267-7.36 23.333-9.958"/><path d="M39.746 34.12a4.17 4.17 0 0 1-4.167-4.167V21.62a4.17 4.17 0 0 1 4.167-4.167 4.17 4.17 0 0 1 4.167 4.167v8.333a4.17 4.17 0 0 1-4.167 4.167zm9.934 60.73v9.892"/></g></symbol><defs ><path id="C" d="M39.804 78.117c10.452-.26 19.804-12.596 21.458-22.7C54.496 67.25 43.314 65 43.314 65l-3.556-5.462-3.554 5.487s-11.183 2.23-17.948-9.583c1.652 10.104 11.004 22.438 21.458 22.7"/></defs></svg>