<svg id="Capa_1" enable-background="new 0 0 512 512" height="512" viewBox="0 0 512 512" width="512" xmlns="http://www.w3.org/2000/svg"><path d="m504.5 39.418c4.143 0 7.5-3.358 7.5-7.5v-20.413c0-4.162-2.254-8.009-5.883-10.042-3.625-2.03-8.075-1.942-11.615.227-24.962 15.292-110.889 64.92-195.055 78.746-.796-11.681-10.554-20.941-22.462-20.941-12.398 0-22.485 10.086-22.485 22.485v2.025h-145v-2.025c0-12.398-10.087-22.485-22.515-22.485-12.398 0-22.485 10.086-22.485 22.485v2.025h-20.778c-3.089-8.735-11.435-15.01-21.238-15.01-12.398 0-22.484 10.086-22.484 22.485v30.03c0 12.398 10.086 22.485 22.485 22.485h.03c9.779 0 18.12-6.275 21.208-15.01h20.777v21.01h-22.5c-4.142 0-7.5 3.358-7.5 7.5v342.997c0 3.626 1.656 6.964 4.543 9.157 2.035 1.546 4.453 2.35 6.926 2.35 1.037 0 2.083-.141 3.114-.428l132.917-36.992 132.917 36.991c3.494.975 7.153.272 10.039-1.921 2.888-2.193 4.544-5.531 4.544-9.157v-276.42c0-4.142-3.357-7.5-7.5-7.5s-7.5 3.358-7.5 7.5v271.813l-129.417-36.018c-2.017-.562-4.149-.562-6.167 0l-129.416 36.017v-330.889h15v219.384c0 4.142 3.358 7.5 7.5 7.5s7.5-3.358 7.5-7.5v-219.282h205v291.298l-91.373-25.43c-7.246-2.017-15.005-2.017-22.253 0l-91.374 25.43v-40.221c0-4.142-3.358-7.5-7.5-7.5s-7.5 3.358-7.5 7.5v50.094c0 2.344 1.096 4.554 2.963 5.972 1.32 1.002 2.917 1.528 4.538 1.528.672 0 1.348-.09 2.01-.274l100.883-28.077c4.63-1.288 9.583-1.287 14.211 0l100.884 28.077c2.256.627 4.681.166 6.548-1.253 1.866-1.418 2.963-3.628 2.963-5.972v-301.274h15v27.384c0 4.142 3.357 7.5 7.5 7.5s7.5-3.358 7.5-7.5v-34.884c0-4.142-3.357-7.5-7.5-7.5h-22.5v-17.432c84.149 13.837 170.046 63.448 195.002 78.737 1.836 1.125 3.917 1.69 6.001 1.69 1.934 0 3.87-.486 5.614-1.463 3.629-2.032 5.883-5.88 5.883-10.042v-137.413c0-4.142-3.357-7.5-7.5-7.5s-7.5 3.358-7.5 7.5v131.209c-31.215-18.651-115.12-64.993-197.5-77.91v-21.752c82.38-12.917 166.285-59.259 197.5-77.911v14.21c0 4.142 3.357 7.5 7.5 7.5zm-395 110.577v-21.01h145v21.01zm145-50.99v14.98h-145v-14.98zm-224.5 22.505c0 4.127-3.358 7.485-7.485 7.485h-.03c-4.127 0-7.485-3.358-7.485-7.485v-30.03c0-4.127 3.358-7.485 7.515-7.485 4.127 0 7.485 3.358 7.485 7.485zm15-7.525v-14.98h19.5v14.98zm34.5-32.005c0-4.127 3.358-7.485 7.515-7.485 4.127 0 7.485 3.358 7.485 7.485v68.015h-15zm190 68.015v-68.015c0-4.127 3.358-7.485 7.515-7.485 4.127 0 7.485 3.358 7.485 7.485v68.015z"/><path d="m115.717 291.436c-1.815 4.965-3.979 12.475-3.979 20.059 0 7.583 2.164 15.093 3.979 20.059 1.902 5.205 7.073 8.382 12.574 7.727l29.435-3.51-3.51 29.43c-.656 5.499 2.52 10.669 7.723 12.573 4.966 1.817 12.477 3.983 20.063 3.983s15.097-2.166 20.063-3.983c5.204-1.904 8.38-7.076 7.723-12.575l-3.513-29.428 29.434 3.509c5.499.653 10.671-2.521 12.574-7.727 1.815-4.965 3.979-12.476 3.979-20.059 0-7.584-2.164-15.094-3.979-20.059-1.902-5.205-7.072-8.378-12.574-7.727l-29.434 3.509 3.513-29.431c.657-5.501-2.521-10.673-7.727-12.576-4.965-1.815-12.475-3.979-20.059-3.979s-15.095 2.164-20.06 3.979c-5.205 1.903-8.382 7.073-7.727 12.574l3.51 29.433-29.436-3.509c-5.497-.651-10.67 2.523-12.572 7.728zm43.059 11.014c3.909.467 7.749-.863 10.533-3.647 2.785-2.784 4.114-6.623 3.648-10.534l-3.549-29.763c3.343-1.07 8.103-2.273 12.594-2.273 4.49 0 9.25 1.204 12.593 2.273l-3.552 29.762c-.467 3.91.862 7.75 3.646 10.534s6.625 4.116 10.534 3.648l29.765-3.548c1.07 3.343 2.274 8.103 2.274 12.593s-1.204 9.25-2.274 12.593l-29.764-3.548c-3.905-.464-7.75.863-10.535 3.648-2.784 2.785-4.113 6.624-3.646 10.533l3.552 29.759c-3.343 1.071-8.103 2.276-12.593 2.276-4.491 0-9.251-1.205-12.594-2.276l3.549-29.761c.466-3.91-.864-7.749-3.648-10.532-2.784-2.784-6.621-4.111-10.533-3.648l-29.765 3.549c-1.07-3.343-2.274-8.103-2.274-12.593s1.204-9.25 2.274-12.593z"/></svg>